<svg width="28" height="28" viewBox="0 0 28 28" fill="none" xmlns="http://www.w3.org/2000/svg">
<path d="M27.6577 20.8398C27.4331 20.3384 27.0723 19.91 26.6164 19.6033L22.2938 16.5355C21.9524 16.2951 21.5863 16.0918 21.2018 15.9289C20.7977 15.7479 20.3561 15.6664 19.914 15.6913C19.4719 15.7162 19.0423 15.8468 18.6611 16.0721C18.2273 16.3108 17.8323 16.614 17.4896 16.9715L16.5512 17.8436C16.0123 17.538 15.5074 17.1758 15.0453 16.7632C14.4517 16.2608 13.8113 15.6686 13.0421 14.9124C12.4408 14.2993 11.8368 13.642 11.2029 12.9066C10.8062 12.4589 10.4495 11.9772 10.1369 11.4671C10.1278 11.441 10.1174 11.4111 10.1044 11.3785L10.9921 10.4557C11.3301 10.1272 11.6229 9.75512 11.8629 9.34935C12.1321 8.92013 12.2764 8.4243 12.2794 7.9176C12.2728 7.51353 12.1842 7.11501 12.019 6.74617C11.8549 6.35337 11.6438 5.98188 11.3904 5.63981L8.37979 1.39792C8.06391 0.94092 7.63099 0.577235 7.12636 0.344927C6.66531 0.1271 6.16156 0.0146131 5.65165 0.0156241C5.0177 0.0261504 4.39227 0.163431 3.81219 0.419381C3.23211 0.675331 2.70912 1.04477 2.27401 1.50595C1.51667 2.20692 0.924876 3.0677 0.541591 4.02584C0.180459 4.94117 -0.00244066 5.91707 0.0027312 6.90106C0.0288582 8.49981 0.373561 10.0773 1.01667 11.5412C1.73252 13.1762 2.62462 14.7282 3.67713 16.1697C4.81098 17.7199 6.05922 19.1831 7.4114 20.547C8.77763 21.8997 10.242 23.1496 11.7926 24.2864C13.2426 25.355 14.8094 26.2554 16.4627 26.9703C17.9187 27.6228 19.492 27.9731 21.0873 27.9999C22.0848 28.0052 23.0736 27.8128 23.9963 27.4337C24.95 27.0352 25.8006 26.425 26.4837 25.6492C26.907 25.1837 27.258 24.6572 27.5249 24.0873C27.7995 23.5144 27.9426 22.8874 27.944 22.2521C27.9426 21.767 27.8453 21.2871 27.6577 20.8398ZM25.7626 23.2491C25.5778 23.6466 25.3333 24.0135 25.0376 24.3372C24.5483 24.8978 23.9375 25.3394 23.2518 25.6284C22.2683 25.9589 21.2285 26.0889 20.1939 26.0109C19.1593 25.9329 18.1508 25.6484 17.228 25.1741C15.7113 24.5184 14.2738 23.6926 12.9432 22.7128C11.4761 21.6344 10.0909 20.4489 8.7989 19.166C7.51933 17.8763 6.33849 16.4923 5.26638 15.0256C4.29481 13.7047 3.47158 12.2809 2.81157 10.7798C2.27032 9.55676 1.97786 8.23825 1.95122 6.90106C1.94832 6.16498 2.08616 5.43514 2.35732 4.75082C2.63953 4.05287 3.07346 3.42643 3.62767 2.91688C3.8841 2.63139 4.19556 2.40065 4.54335 2.23849C4.89115 2.07634 5.26812 1.98611 5.65165 1.97322C5.87672 1.97149 6.09925 2.02089 6.30245 2.1177C6.49828 2.20688 6.66612 2.34772 6.78794 2.5251L9.80634 6.78261C9.97272 7.00667 10.1121 7.24958 10.2215 7.5063C10.2806 7.636 10.3154 7.77539 10.3244 7.9176C10.3183 8.07607 10.2673 8.22954 10.1773 8.36014C10.0156 8.62757 9.8196 8.87263 9.59418 9.08904L8.62189 10.1004C8.4614 10.2585 8.33461 10.4476 8.24916 10.656C8.1637 10.8645 8.12136 11.0882 8.12468 11.3135C8.12705 11.5341 8.16124 11.7533 8.2262 11.9643L8.3876 12.3547C8.77096 13.0067 9.21597 13.6204 9.71653 14.1874C10.3855 14.9605 11.0181 15.6478 11.6572 16.3025C12.4746 17.1056 13.1501 17.7342 13.7801 18.264C14.3512 18.7654 14.9722 19.2068 15.6336 19.5812L15.9798 19.7335C16.3001 19.8512 16.6469 19.877 16.9811 19.808C17.3153 19.739 17.6235 19.5779 17.871 19.343L18.8628 18.3616C19.0825 18.1298 19.3362 17.9327 19.6152 17.7772C19.7322 17.6794 19.8783 17.6228 20.0307 17.6162C20.1831 17.6096 20.3335 17.6534 20.4586 17.7407C20.7105 17.8491 20.9504 17.9835 21.1745 18.1416L25.4918 21.2082C25.6479 21.3015 25.7747 21.4368 25.8576 21.5987C25.9469 21.8041 25.9939 22.0254 25.9956 22.2495C25.9936 22.5959 25.914 22.9375 25.7626 23.2491Z" fill="#7A6A4F"/>
<path d="M22.4656 11.0635C22.2067 11.0635 21.9584 10.9607 21.7753 10.7776C21.5923 10.5946 21.4894 10.3463 21.4894 10.0874C21.3123 9.21636 20.8748 8.41973 20.2347 7.80306C19.6595 7.08334 18.8247 6.61826 17.91 6.50797C17.6511 6.50797 17.4028 6.40512 17.2198 6.22205C17.0367 6.03898 16.9338 5.79068 16.9338 5.53177C16.9338 5.27287 17.0367 5.02457 17.2198 4.8415C17.4028 4.65843 17.6511 4.55558 17.91 4.55558C18.6322 4.60357 19.337 4.79793 19.9816 5.12686C20.6263 5.45578 21.1973 5.91239 21.6599 6.46892C22.6537 7.43326 23.2833 8.71171 23.4418 10.0874C23.4418 10.3463 23.339 10.5946 23.1559 10.7776C22.9728 10.9607 22.7245 11.0635 22.4656 11.0635ZM27.9974 10.0874C27.9943 7.41297 26.9305 4.84902 25.0394 2.95794C23.1484 1.06687 20.5844 0.00310034 17.91 0C17.6511 0 17.4028 0.102849 17.2198 0.285921C17.0367 0.468993 16.9338 0.717292 16.9338 0.976196C16.9338 1.2351 17.0367 1.4834 17.2198 1.66647C17.4028 1.84954 17.6511 1.95239 17.91 1.95239C20.0668 1.9548 22.1346 2.81265 23.6597 4.33773C25.1847 5.86281 26.0426 7.93057 26.045 10.0874C26.045 10.3463 26.1478 10.5946 26.3309 10.7776C26.514 10.9607 26.7623 11.0635 27.0212 11.0635C27.2801 11.0635 27.5284 10.9607 27.7115 10.7776C27.8945 10.5946 27.9974 10.3463 27.9974 10.0874Z" fill="#7A6A4F"/>
</svg>
